<svg xmlns="http://www.w3.org/2000/svg" width="1024" height="1024" viewBox="0 0 1024 1024" version="1.1"><path d="M 634.146 249.555 C 622.166 251.094, 609.600 253.973, 601.500 257.033 C 600.400 257.448, 597.250 258.572, 594.500 259.531 C 588.509 261.619, 567.503 271.779, 560.500 275.977 C 557.750 277.625, 554.825 279.285, 554 279.666 C 552.062 280.562, 523.816 300.943, 522.500 302.396 C 521.950 303.003, 518.128 306.200, 514.008 309.500 C 509.887 312.800, 498.245 323.600, 488.136 333.500 C 478.028 343.400, 469.380 351.394, 468.919 351.264 C 468.458 351.133, 465.700 349.542, 462.791 347.728 C 453.349 341.840, 440.768 336.338, 424 330.764 C 393.827 320.734, 356.831 319.728, 319 327.909 C 314.420 328.899, 294.139 335.311, 290.500 336.919 C 271.955 345.114, 249.844 358.385, 238.500 368.130 C 228.382 376.821, 213.919 392.104, 207.054 401.358 C 203.174 406.588, 200 411.114, 200 411.416 C 200 411.718, 198.280 414.785, 196.178 418.232 C 193.004 423.437, 186.814 435.677, 182.894 444.500 C 181.507 447.621, 177.029 462.011, 175.891 467 C 168.177 500.828, 168.930 532.330, 178.238 565.202 C 178.971 567.787, 179.892 570.225, 180.285 570.618 C 180.678 571.012, 181 571.978, 181 572.766 C 181 575.673, 197.702 610, 199.117 610 C 199.603 610, 200 610.474, 200 611.053 C 200 613.129, 212.695 629.610, 221.809 639.365 L 226.354 644.229 225.177 648.629 C 223.585 654.581, 223.694 658.264, 225.677 665.434 C 229.097 677.801, 238.524 687.927, 249.471 690.992 C 253.478 692.114, 254.475 692.899, 255.724 695.913 C 258.944 703.689, 266.516 718.534, 268.009 720 C 268.290 720.275, 269.708 722.300, 271.161 724.500 C 275.078 730.431, 276.933 732.697, 283 738.960 C 301.840 758.409, 321.733 768.690, 350 773.586 C 361.497 775.577, 385.512 775.046, 399.500 772.491 C 434.282 766.139, 471.193 746.924, 506.973 716.543 C 519.139 706.213, 517.718 707.544, 537.280 688.142 L 554.060 671.500 558.280 673.894 C 579.687 686.038, 598.636 693.508, 619.500 698.026 C 633.614 701.083, 667.751 701.930, 683.500 699.614 C 718.330 694.493, 750.091 681.318, 777.500 660.620 C 786.997 653.449, 785.353 654.902, 797.998 642.500 C 822.168 618.793, 839.586 587.878, 847.861 554 C 853.719 530.015, 853.555 494.541, 847.465 468.573 C 844.254 454.879, 837.232 436.667, 830.472 424.500 C 826.935 418.133, 813.834 397.980, 811.939 395.990 C 811.147 395.159, 807.877 391.450, 804.672 387.747 L 798.844 381.015 799.911 374.134 C 801.690 362.670, 798.471 351.465, 791.158 343.666 C 786.484 338.681, 779.552 334.168, 774.689 332.943 C 769.302 331.587, 769.542 331.859, 765.409 322.441 C 751.162 289.977, 724.984 265.157, 694.500 255.210 C 683.751 251.703, 680.642 250.960, 670.500 249.475 C 658.580 247.731, 648.170 247.753, 634.146 249.555 M 645 280.626 C 643.625 280.820, 638.675 281.480, 634 282.092 C 625.628 283.189, 621.348 284.262, 609.500 288.234 C 601.125 291.041, 597.099 292.851, 581.500 300.818 C 567.202 308.121, 545.080 324.506, 524.584 342.972 C 515.923 350.776, 497.003 370.279, 497.052 371.353 C 497.080 371.984, 501.018 375.533, 505.802 379.240 C 510.586 382.947, 516.525 387.784, 519 389.989 C 521.475 392.193, 524.021 393.998, 524.657 393.999 C 525.293 393.999, 527.318 392.087, 529.157 389.750 C 534.416 383.064, 555.881 361.880, 562.500 356.843 C 577.717 345.262, 599.266 334.567, 617.500 329.543 C 620.800 328.634, 624.850 327.478, 626.500 326.974 C 638.832 323.206, 670.017 321.950, 687.699 324.508 C 694.091 325.432, 700.261 326.545, 701.410 326.979 C 702.560 327.414, 706.875 328.563, 711 329.533 C 715.125 330.503, 718.950 331.619, 719.500 332.014 C 720.050 332.409, 721.625 332.980, 723 333.284 C 724.375 333.588, 727.470 334.566, 729.878 335.457 C 732.285 336.349, 734.515 336.818, 734.832 336.501 C 736.847 334.486, 726.047 316.417, 717.801 308.006 C 711.013 301.082, 700.955 293, 699.126 293 C 698.598 293, 698.017 292.663, 697.833 292.250 C 697.531 291.571, 695.434 290.486, 688 287.163 C 676.992 282.243, 656.067 279.061, 645 280.626 M 357.500 354.679 C 319.230 356.111, 276.415 375.252, 248.405 403.450 C 240.410 411.499, 229 425.903, 229 427.947 C 229 428.526, 228.602 429, 228.117 429 C 227.631 429, 226.969 429.788, 226.646 430.750 C 226.322 431.712, 225.483 433.383, 224.779 434.462 C 219.895 441.954, 214.336 454.272, 211.448 464 C 210.550 467.025, 209.433 470.625, 208.966 472 C 205.681 481.670, 202.295 508.644, 203.366 516.608 C 203.727 519.299, 204.306 524.087, 204.651 527.250 C 205.073 531.126, 205.721 533, 206.639 533 C 207.387 533, 208.015 531.987, 208.033 530.750 C 208.062 528.706, 209.695 523.561, 212.871 515.500 C 213.522 513.850, 214.567 511.150, 215.194 509.500 C 215.822 507.850, 216.668 506.050, 217.076 505.500 C 217.483 504.950, 219.331 501.575, 221.182 498 C 224.833 490.949, 229.474 483.637, 232.250 480.561 C 233.213 479.495, 234 478.290, 234 477.883 C 234 477.476, 234.569 476.548, 235.264 475.821 C 235.960 475.095, 238.086 472.475, 239.990 470 C 248.966 458.328, 263.854 444.908, 278 435.738 C 310.581 414.617, 346.649 405.706, 382.026 410.037 C 389.136 410.908, 408.995 415.526, 414.172 417.512 C 415.201 417.907, 418.714 414.037, 425.720 404.790 C 431.257 397.481, 438.308 388.350, 441.388 384.500 C 444.469 380.650, 446.991 377.193, 446.994 376.817 C 447.004 375.666, 424.985 365.361, 416.500 362.546 C 405.382 358.857, 403.074 358.210, 398.500 357.500 C 396.300 357.159, 392.475 356.486, 390 356.006 C 384.800 354.997, 367.684 354.298, 357.500 354.679 M 647.888 355.445 C 647.643 355.690, 644.305 356.385, 640.471 356.989 C 632.930 358.176, 631.555 358.541, 619.500 362.555 C 600.748 368.799, 583.382 379.736, 567.980 395 C 556.149 406.725, 550 413.946, 550 416.114 C 550 417.023, 551.913 419.463, 554.250 421.537 C 556.587 423.610, 567.955 434.574, 579.511 445.903 C 610.111 475.901, 617.707 482.454, 627.245 487.088 L 631.637 489.222 637.568 485.861 C 643.022 482.771, 644.185 482.501, 652 482.512 C 661.143 482.525, 665.272 483.992, 671.927 489.592 C 674.930 492.119, 675.365 492.207, 679.177 491.065 C 701.966 484.237, 727.065 454.387, 738.511 420.500 C 740.610 414.284, 743 404.443, 743 402.014 C 743 400.723, 740.920 397.694, 737.954 394.664 C 732.116 388.702, 727.967 380.890, 727.247 374.501 C 726.683 369.499, 726.335 369.118, 720 366.570 C 717.525 365.575, 714.600 364.386, 713.500 363.928 C 709.097 362.093, 696.984 358.780, 688 356.952 C 681.113 355.550, 674.351 355.016, 663.417 355.009 C 655.121 355.004, 648.133 355.200, 647.888 355.445 M 470.430 400.722 C 468.818 402.769, 465.682 406.707, 463.460 409.472 C 457.294 417.145, 446.877 431.154, 446.413 432.395 C 446.187 433.003, 449.569 435.880, 453.929 438.789 C 472.069 450.891, 487.745 464.653, 518.500 495.478 C 535.550 512.567, 553.956 530.490, 559.403 535.308 C 573.603 547.870, 594.130 563, 596.972 563 C 598.549 563, 623.157 525.055, 622.800 523.174 C 622.624 522.247, 618.623 519.454, 613.837 516.916 C 605.247 512.361, 594.154 504.746, 586.500 498.150 C 584.300 496.254, 571.700 484.082, 558.500 471.101 C 537.653 450.601, 517.975 431.902, 509.914 424.932 C 508.586 423.784, 505.925 421.413, 504 419.662 C 502.075 417.911, 498.475 414.915, 496 413.004 C 493.525 411.093, 490.997 409.072, 490.383 408.514 C 484.004 402.721, 476.254 397, 474.786 397 C 474.001 397, 472.041 398.675, 470.430 400.722 M 775.564 407.137 C 775.311 407.887, 773.895 413.225, 772.417 419 C 763.085 455.480, 742.559 487.989, 716.799 507.089 C 706.641 514.621, 698.078 518.997, 686.719 522.462 C 679.511 524.660, 677.735 525.612, 676.544 527.914 C 673.233 534.318, 663.830 540.200, 654.786 541.525 C 650.208 542.196, 649.936 542.436, 645.331 549.858 C 642.723 554.061, 637.982 561.487, 634.795 566.359 C 631.608 571.232, 629 575.780, 629 576.465 C 629 578.048, 641.674 580.748, 653 581.578 C 690.526 584.325, 733.410 563.895, 759.165 531 C 768.308 519.323, 770.410 516.108, 775.466 506.068 C 786.895 483.372, 791.525 462.815, 790.818 437.902 C 790.409 423.476, 790.366 423.246, 787.184 418.287 C 783.809 413.028, 780.682 409.313, 777.762 407.095 C 776.317 405.997, 775.946 406.005, 775.564 407.137 M 347.500 442.628 C 336.928 444.721, 333.763 445.479, 329 447.057 C 307.990 454.019, 289.740 465.120, 275.667 479.500 C 272.945 482.281, 261.829 495.227, 260.212 497.500 C 252.458 508.394, 240 533.369, 240 538.020 C 240 538.889, 239.597 540.028, 239.105 540.550 C 237.928 541.800, 236.333 548.802, 233.877 563.500 C 232.427 572.177, 231.972 578.703, 232.234 587.068 C 232.646 600.225, 233.812 603.126, 242.635 612.939 L 247.392 618.230 249.595 609.365 C 254.746 588.635, 261.988 571.239, 272.852 553.500 C 275.884 548.550, 278.646 544.275, 278.990 544 C 279.334 543.725, 280.265 542.558, 281.058 541.407 C 292.524 524.767, 313.656 508.525, 332.810 501.631 C 336.830 500.184, 340.942 499, 341.947 499 C 342.957 499, 345.726 496.572, 348.137 493.572 C 353.299 487.149, 359.713 483.313, 367.057 482.256 C 372.239 481.510, 372.510 481.306, 376.943 474.829 C 379.449 471.166, 382.735 466.219, 384.245 463.835 C 385.754 461.451, 388.802 456.662, 391.018 453.192 C 393.234 449.723, 394.817 446.513, 394.536 446.058 C 394.026 445.234, 391.996 444.724, 382.500 443.035 C 377.578 442.160, 351.403 441.855, 347.500 442.628 M 425.438 460.765 C 424.237 461.597, 414.007 477.129, 406.015 490.256 C 401.268 498.052, 400.808 499.284, 401.821 501.506 C 402.446 502.877, 403.570 504, 404.319 504 C 406.311 504, 420.700 512.846, 429.701 519.606 C 433.991 522.827, 447.625 535.443, 460 547.642 C 472.375 559.841, 484.300 571.516, 486.500 573.587 C 488.700 575.658, 493.650 580.318, 497.500 583.943 C 509.205 594.965, 519.827 604.166, 534.394 615.903 L 548.289 627.098 551.227 624.299 C 555.530 620.199, 577 592.052, 577 590.509 C 577 589.785, 573.349 586.850, 568.886 583.988 C 552.696 573.602, 535.440 558.462, 501.500 524.863 C 466.260 489.977, 448.751 474.146, 435.532 465.215 C 427.403 459.723, 427.123 459.600, 425.438 460.765 M 816.238 492 C 815.667 493.375, 813.724 498.550, 811.920 503.500 C 804.407 524.115, 791.132 545.233, 774.948 562.310 C 755.266 583.080, 734.421 596.670, 708.846 605.406 C 691.806 611.226, 682.226 613.034, 665 613.680 C 647.226 614.346, 637.395 613.310, 620.164 608.954 C 613.749 607.332, 608.227 606.004, 607.894 606.003 C 607.561 606.001, 604.347 609.938, 600.752 614.750 C 597.157 619.563, 590.338 628.437, 585.598 634.471 C 580.859 640.505, 577.107 645.905, 577.261 646.471 C 577.738 648.222, 597.948 657.719, 609 661.386 C 626.790 667.288, 634.975 668.484, 657 668.398 C 674.128 668.331, 678.065 667.994, 689.369 665.631 C 722.204 658.766, 752.615 642.564, 775 620.009 C 791.785 603.098, 803.848 583.499, 812.860 558.500 C 814.967 552.656, 817.893 539.378, 819.073 530.304 C 820.352 520.469, 819.836 497.656, 818.217 492.500 L 817.276 489.500 816.238 492 M 340.416 533.822 C 330.592 538.146, 324.731 542.328, 315.323 551.729 C 301.270 565.771, 288.434 590.426, 281.891 615.946 L 279.982 623.391 284.998 627.779 C 291.169 633.178, 294.754 639.136, 296.981 647.697 C 297.955 651.441, 299.416 654.653, 300.393 655.200 C 304.761 657.645, 324.993 664.171, 334.232 666.116 C 347.721 668.956, 368.560 669.182, 381.500 666.630 C 403.768 662.237, 424.582 653.091, 442 640.045 C 452.318 632.317, 473.012 610.473, 472.996 607.326 C 472.989 606.047, 417.666 552.257, 409.407 545.500 C 405.374 542.200, 399.722 538.241, 396.848 536.702 C 391.688 533.939, 391.590 533.927, 389.061 535.753 C 378.181 543.610, 361.769 542.882, 351.765 534.099 C 349.824 532.394, 347.845 531.033, 347.368 531.072 C 346.891 531.112, 343.762 532.350, 340.416 533.822 M 493.909 634.250 C 491.487 637.138, 488.604 640.598, 487.503 641.940 C 486.401 643.282, 483.475 646.432, 481 648.940 C 455.744 674.534, 428.021 690.020, 393.813 697.643 C 382.502 700.164, 379.710 700.392, 359.500 700.443 C 339.950 700.494, 336.331 700.239, 327 698.156 C 317.997 696.147, 295.226 689.071, 289.750 686.582 C 287.114 685.383, 287.532 687.835, 291.119 694.609 C 298.868 709.242, 310.906 722.100, 324.774 730.552 C 347.048 744.129, 379.515 745.974, 411.648 735.488 C 435.868 727.584, 463.663 710.849, 489.500 688.612 C 499.622 679.901, 526 653.783, 526 652.472 C 526 651.551, 499.725 629, 498.652 629 C 498.466 629, 496.331 631.362, 493.909 634.250" stroke="none" fill="#2983c3" fill-rule="evenodd"/><path d="M 0 512.001 L 0 1024.002 512.250 1023.751 L 1024.500 1023.500 1024.751 511.750 L 1025.002 0 512.501 0 L 0 0 0 512.001 M 0.496 512.500 C 0.496 794.100, 0.610 909.151, 0.750 768.168 C 0.890 627.186, 0.890 396.786, 0.750 256.168 C 0.610 115.551, 0.496 230.900, 0.496 512.500 M 634.146 249.555 C 622.166 251.094, 609.600 253.973, 601.500 257.033 C 600.400 257.448, 597.250 258.572, 594.500 259.531 C 588.509 261.619, 567.503 271.779, 560.500 275.977 C 557.750 277.625, 554.825 279.285, 554 279.666 C 552.062 280.562, 523.816 300.943, 522.500 302.396 C 521.950 303.003, 518.128 306.200, 514.008 309.500 C 509.887 312.800, 498.245 323.600, 488.136 333.500 C 478.028 343.400, 469.380 351.394, 468.919 351.264 C 468.458 351.133, 465.700 349.542, 462.791 347.728 C 453.349 341.840, 440.768 336.338, 424 330.764 C 393.827 320.734, 356.831 319.728, 319 327.909 C 314.420 328.899, 294.139 335.311, 290.500 336.919 C 271.955 345.114, 249.844 358.385, 238.500 368.130 C 228.382 376.821, 213.919 392.104, 207.054 401.358 C 203.174 406.588, 200 411.114, 200 411.416 C 200 411.718, 198.280 414.785, 196.178 418.232 C 193.004 423.437, 186.814 435.677, 182.894 444.500 C 181.507 447.621, 177.029 462.011, 175.891 467 C 168.177 500.828, 168.930 532.330, 178.238 565.202 C 178.971 567.787, 179.892 570.225, 180.285 570.618 C 180.678 571.012, 181 571.978, 181 572.766 C 181 575.673, 197.702 610, 199.117 610 C 199.603 610, 200 610.474, 200 611.053 C 200 613.129, 212.695 629.610, 221.809 639.365 L 226.354 644.229 225.177 648.629 C 223.585 654.581, 223.694 658.264, 225.677 665.434 C 229.097 677.801, 238.524 687.927, 249.471 690.992 C 253.478 692.114, 254.475 692.899, 255.724 695.913 C 258.944 703.689, 266.516 718.534, 268.009 720 C 268.290 720.275, 269.708 722.300, 271.161 724.500 C 275.078 730.431, 276.933 732.697, 283 738.960 C 301.840 758.409, 321.733 768.690, 350 773.586 C 361.497 775.577, 385.512 775.046, 399.500 772.491 C 434.282 766.139, 471.193 746.924, 506.973 716.543 C 519.139 706.213, 517.718 707.544, 537.280 688.142 L 554.060 671.500 558.280 673.894 C 579.687 686.038, 598.636 693.508, 619.500 698.026 C 633.614 701.083, 667.751 701.930, 683.500 699.614 C 718.330 694.493, 750.091 681.318, 777.500 660.620 C 786.997 653.449, 785.353 654.902, 797.998 642.500 C 822.168 618.793, 839.586 587.878, 847.861 554 C 853.719 530.015, 853.555 494.541, 847.465 468.573 C 844.254 454.879, 837.232 436.667, 830.472 424.500 C 826.935 418.133, 813.834 397.980, 811.939 395.990 C 811.147 395.159, 807.877 391.450, 804.672 387.747 L 798.844 381.015 799.911 374.134 C 801.690 362.670, 798.471 351.465, 791.158 343.666 C 786.484 338.681, 779.552 334.168, 774.689 332.943 C 769.302 331.587, 769.542 331.859, 765.409 322.441 C 751.162 289.977, 724.984 265.157, 694.500 255.210 C 683.751 251.703, 680.642 250.960, 670.500 249.475 C 658.580 247.731, 648.170 247.753, 634.146 249.555 M 645 280.626 C 643.625 280.820, 638.675 281.480, 634 282.092 C 625.628 283.189, 621.348 284.262, 609.500 288.234 C 601.125 291.041, 597.099 292.851, 581.500 300.818 C 567.202 308.121, 545.080 324.506, 524.584 342.972 C 515.923 350.776, 497.003 370.279, 497.052 371.353 C 497.080 371.984, 501.018 375.533, 505.802 379.240 C 510.586 382.947, 516.525 387.784, 519 389.989 C 521.475 392.193, 524.021 393.998, 524.657 393.999 C 525.293 393.999, 527.318 392.087, 529.157 389.750 C 534.416 383.064, 555.881 361.880, 562.500 356.843 C 577.717 345.262, 599.266 334.567, 617.500 329.543 C 620.800 328.634, 624.850 327.478, 626.500 326.974 C 638.832 323.206, 670.017 321.950, 687.699 324.508 C 694.091 325.432, 700.261 326.545, 701.410 326.979 C 702.560 327.414, 706.875 328.563, 711 329.533 C 715.125 330.503, 718.950 331.619, 719.500 332.014 C 720.050 332.409, 721.625 332.980, 723 333.284 C 724.375 333.588, 727.470 334.566, 729.878 335.457 C 732.285 336.349, 734.515 336.818, 734.832 336.501 C 736.847 334.486, 726.047 316.417, 717.801 308.006 C 711.013 301.082, 700.955 293, 699.126 293 C 698.598 293, 698.017 292.663, 697.833 292.250 C 697.531 291.571, 695.434 290.486, 688 287.163 C 676.992 282.243, 656.067 279.061, 645 280.626 M 357.500 354.679 C 319.230 356.111, 276.415 375.252, 248.405 403.450 C 240.410 411.499, 229 425.903, 229 427.947 C 229 428.526, 228.602 429, 228.117 429 C 227.631 429, 226.969 429.788, 226.646 430.750 C 226.322 431.712, 225.483 433.383, 224.779 434.462 C 219.895 441.954, 214.336 454.272, 211.448 464 C 210.550 467.025, 209.433 470.625, 208.966 472 C 205.681 481.670, 202.295 508.644, 203.366 516.608 C 203.727 519.299, 204.306 524.087, 204.651 527.250 C 205.073 531.126, 205.721 533, 206.639 533 C 207.387 533, 208.015 531.987, 208.033 530.750 C 208.062 528.706, 209.695 523.561, 212.871 515.500 C 213.522 513.850, 214.567 511.150, 215.194 509.500 C 215.822 507.850, 216.668 506.050, 217.076 505.500 C 217.483 504.950, 219.331 501.575, 221.182 498 C 224.833 490.949, 229.474 483.637, 232.250 480.561 C 233.213 479.495, 234 478.290, 234 477.883 C 234 477.476, 234.569 476.548, 235.264 475.821 C 235.960 475.095, 238.086 472.475, 239.990 470 C 248.966 458.328, 263.854 444.908, 278 435.738 C 310.581 414.617, 346.649 405.706, 382.026 410.037 C 389.136 410.908, 408.995 415.526, 414.172 417.512 C 415.201 417.907, 418.714 414.037, 425.720 404.790 C 431.257 397.481, 438.308 388.350, 441.388 384.500 C 444.469 380.650, 446.991 377.193, 446.994 376.817 C 447.004 375.666, 424.985 365.361, 416.500 362.546 C 405.382 358.857, 403.074 358.210, 398.500 357.500 C 396.300 357.159, 392.475 356.486, 390 356.006 C 384.800 354.997, 367.684 354.298, 357.500 354.679 M 647.888 355.445 C 647.643 355.690, 644.305 356.385, 640.471 356.989 C 632.930 358.176, 631.555 358.541, 619.500 362.555 C 600.748 368.799, 583.382 379.736, 567.980 395 C 556.149 406.725, 550 413.946, 550 416.114 C 550 417.023, 551.913 419.463, 554.250 421.537 C 556.587 423.610, 567.955 434.574, 579.511 445.903 C 610.111 475.901, 617.707 482.454, 627.245 487.088 L 631.637 489.222 637.568 485.861 C 643.022 482.771, 644.185 482.501, 652 482.512 C 661.143 482.525, 665.272 483.992, 671.927 489.592 C 674.930 492.119, 675.365 492.207, 679.177 491.065 C 701.966 484.237, 727.065 454.387, 738.511 420.500 C 740.610 414.284, 743 404.443, 743 402.014 C 743 400.723, 740.920 397.694, 737.954 394.664 C 732.116 388.702, 727.967 380.890, 727.247 374.501 C 726.683 369.499, 726.335 369.118, 720 366.570 C 717.525 365.575, 714.600 364.386, 713.500 363.928 C 709.097 362.093, 696.984 358.780, 688 356.952 C 681.113 355.550, 674.351 355.016, 663.417 355.009 C 655.121 355.004, 648.133 355.200, 647.888 355.445 M 470.430 400.722 C 468.818 402.769, 465.682 406.707, 463.460 409.472 C 457.294 417.145, 446.877 431.154, 446.413 432.395 C 446.187 433.003, 449.569 435.880, 453.929 438.789 C 472.069 450.891, 487.745 464.653, 518.500 495.478 C 535.550 512.567, 553.956 530.490, 559.403 535.308 C 573.603 547.870, 594.130 563, 596.972 563 C 598.549 563, 623.157 525.055, 622.800 523.174 C 622.624 522.247, 618.623 519.454, 613.837 516.916 C 605.247 512.361, 594.154 504.746, 586.500 498.150 C 584.300 496.254, 571.700 484.082, 558.500 471.101 C 537.653 450.601, 517.975 431.902, 509.914 424.932 C 508.586 423.784, 505.925 421.413, 504 419.662 C 502.075 417.911, 498.475 414.915, 496 413.004 C 493.525 411.093, 490.997 409.072, 490.383 408.514 C 484.004 402.721, 476.254 397, 474.786 397 C 474.001 397, 472.041 398.675, 470.430 400.722 M 775.564 407.137 C 775.311 407.887, 773.895 413.225, 772.417 419 C 763.085 455.480, 742.559 487.989, 716.799 507.089 C 706.641 514.621, 698.078 518.997, 686.719 522.462 C 679.511 524.660, 677.735 525.612, 676.544 527.914 C 673.233 534.318, 663.830 540.200, 654.786 541.525 C 650.208 542.196, 649.936 542.436, 645.331 549.858 C 642.723 554.061, 637.982 561.487, 634.795 566.359 C 631.608 571.232, 629 575.780, 629 576.465 C 629 578.048, 641.674 580.748, 653 581.578 C 690.526 584.325, 733.410 563.895, 759.165 531 C 768.308 519.323, 770.410 516.108, 775.466 506.068 C 786.895 483.372, 791.525 462.815, 790.818 437.902 C 790.409 423.476, 790.366 423.246, 787.184 418.287 C 783.809 413.028, 780.682 409.313, 777.762 407.095 C 776.317 405.997, 775.946 406.005, 775.564 407.137 M 347.500 442.628 C 336.928 444.721, 333.763 445.479, 329 447.057 C 307.990 454.019, 289.740 465.120, 275.667 479.500 C 272.945 482.281, 261.829 495.227, 260.212 497.500 C 252.458 508.394, 240 533.369, 240 538.020 C 240 538.889, 239.597 540.028, 239.105 540.550 C 237.928 541.800, 236.333 548.802, 233.877 563.500 C 232.427 572.177, 231.972 578.703, 232.234 587.068 C 232.646 600.225, 233.812 603.126, 242.635 612.939 L 247.392 618.230 249.595 609.365 C 254.746 588.635, 261.988 571.239, 272.852 553.500 C 275.884 548.550, 278.646 544.275, 278.990 544 C 279.334 543.725, 280.265 542.558, 281.058 541.407 C 292.524 524.767, 313.656 508.525, 332.810 501.631 C 336.830 500.184, 340.942 499, 341.947 499 C 342.957 499, 345.726 496.572, 348.137 493.572 C 353.299 487.149, 359.713 483.313, 367.057 482.256 C 372.239 481.510, 372.510 481.306, 376.943 474.829 C 379.449 471.166, 382.735 466.219, 384.245 463.835 C 385.754 461.451, 388.802 456.662, 391.018 453.192 C 393.234 449.723, 394.817 446.513, 394.536 446.058 C 394.026 445.234, 391.996 444.724, 382.500 443.035 C 377.578 442.160, 351.403 441.855, 347.500 442.628 M 425.438 460.765 C 424.237 461.597, 414.007 477.129, 406.015 490.256 C 401.268 498.052, 400.808 499.284, 401.821 501.506 C 402.446 502.877, 403.570 504, 404.319 504 C 406.311 504, 420.700 512.846, 429.701 519.606 C 433.991 522.827, 447.625 535.443, 460 547.642 C 472.375 559.841, 484.300 571.516, 486.500 573.587 C 488.700 575.658, 493.650 580.318, 497.500 583.943 C 509.205 594.965, 519.827 604.166, 534.394 615.903 L 548.289 627.098 551.227 624.299 C 555.530 620.199, 577 592.052, 577 590.509 C 577 589.785, 573.349 586.850, 568.886 583.988 C 552.696 573.602, 535.440 558.462, 501.500 524.863 C 466.260 489.977, 448.751 474.146, 435.532 465.215 C 427.403 459.723, 427.123 459.600, 425.438 460.765 M 816.238 492 C 815.667 493.375, 813.724 498.550, 811.920 503.500 C 804.407 524.115, 791.132 545.233, 774.948 562.310 C 755.266 583.080, 734.421 596.670, 708.846 605.406 C 691.806 611.226, 682.226 613.034, 665 613.680 C 647.226 614.346, 637.395 613.310, 620.164 608.954 C 613.749 607.332, 608.227 606.004, 607.894 606.003 C 607.561 606.001, 604.347 609.938, 600.752 614.750 C 597.157 619.563, 590.338 628.437, 585.598 634.471 C 580.859 640.505, 577.107 645.905, 577.261 646.471 C 577.738 648.222, 597.948 657.719, 609 661.386 C 626.790 667.288, 634.975 668.484, 657 668.398 C 674.128 668.331, 678.065 667.994, 689.369 665.631 C 722.204 658.766, 752.615 642.564, 775 620.009 C 791.785 603.098, 803.848 583.499, 812.860 558.500 C 814.967 552.656, 817.893 539.378, 819.073 530.304 C 820.352 520.469, 819.836 497.656, 818.217 492.500 L 817.276 489.500 816.238 492 M 340.416 533.822 C 330.592 538.146, 324.731 542.328, 315.323 551.729 C 301.270 565.771, 288.434 590.426, 281.891 615.946 L 279.982 623.391 284.998 627.779 C 291.169 633.178, 294.754 639.136, 296.981 647.697 C 297.955 651.441, 299.416 654.653, 300.393 655.200 C 304.761 657.645, 324.993 664.171, 334.232 666.116 C 347.721 668.956, 368.560 669.182, 381.500 666.630 C 403.768 662.237, 424.582 653.091, 442 640.045 C 452.318 632.317, 473.012 610.473, 472.996 607.326 C 472.989 606.047, 417.666 552.257, 409.407 545.500 C 405.374 542.200, 399.722 538.241, 396.848 536.702 C 391.688 533.939, 391.590 533.927, 389.061 535.753 C 378.181 543.610, 361.769 542.882, 351.765 534.099 C 349.824 532.394, 347.845 531.033, 347.368 531.072 C 346.891 531.112, 343.762 532.350, 340.416 533.822 M 493.909 634.250 C 491.487 637.138, 488.604 640.598, 487.503 641.940 C 486.401 643.282, 483.475 646.432, 481 648.940 C 455.744 674.534, 428.021 690.020, 393.813 697.643 C 382.502 700.164, 379.710 700.392, 359.500 700.443 C 339.950 700.494, 336.331 700.239, 327 698.156 C 317.997 696.147, 295.226 689.071, 289.750 686.582 C 287.114 685.383, 287.532 687.835, 291.119 694.609 C 298.868 709.242, 310.906 722.100, 324.774 730.552 C 347.048 744.129, 379.515 745.974, 411.648 735.488 C 435.868 727.584, 463.663 710.849, 489.500 688.612 C 499.622 679.901, 526 653.783, 526 652.472 C 526 651.551, 499.725 629, 498.652 629 C 498.466 629, 496.331 631.362, 493.909 634.250" stroke="none" fill="#fafbfb" fill-rule="evenodd"/></svg>